<?xml version="1.0" ?><svg fill="none" height="24" viewBox="0 0 24 24" width="24" xmlns="http://www.w3.org/2000/svg"><path clip-rule="evenodd" d="M2.00003 12C2.00003 6.47715 6.47718 2 12 2C17.5229 2 22 6.47715 22 12C22 17.5228 17.5229 22 12 22C10.2069 22 8.52163 21.5272 7.06485 20.6992L3.31625 21.9487C2.95692 22.0685 2.56075 21.9749 2.29292 21.7071C2.02509 21.4393 1.93157 21.0431 2.05134 20.6838L3.30088 16.9352C2.47283 15.4784 2.00003 13.7931 2.00003 12ZM8.07352 7.00009C8.85457 6.21904 10.1209 6.21905 10.9019 7.00009L12.1571 8.25523C12.5476 8.64575 12.5476 9.27892 12.1571 9.66944L11.2144 10.6121C11.7354 11.5146 12.4856 12.2647 13.388 12.7857L14.3307 11.843C14.5182 11.6555 14.7726 11.5501 15.0378 11.5501C15.303 11.5501 15.5574 11.6555 15.7449 11.843L17 13.0982C17.7811 13.8792 17.7811 15.1456 17 15.9266L15.6259 17.3008C14.9864 17.9402 14.0406 18.1635 13.1826 17.8775L13.4989 16.9289L13.1826 17.8775L12.969 17.8063C9.77019 16.7401 7.26007 14.2299 6.19379 11.0311L6.12258 10.8175C5.83661 9.95957 6.0599 9.01371 6.69935 8.37426L8.07352 7.00009Z" style = "fill:#fff" fill-rule="evenodd"/></svg>